# xmcd CD database file
#
# Track frame offsets:
#	182
#	19235
#	32980
#	46865
#	62135
#	81662
#	99725
#	119100
#	134570
#
# Disc length: 1937 seconds
#
# Revision: 1
# Processed by: cddbd v1.5.1PL0 Copyright (c) Steve Scherf et al.
# Submitted via: CDex 1.51
#
DISCID=88078f09
DTITLE=Ilan Chester - Al pie de la letra
DYEAR=1987
DGENRE=Pop
TTITLE0=Para siempre
TTITLE1=Eres una en un millón
TTITLE2=Por alguien como tú
TTITLE3=Amor y lluvia
TTITLE4=Vale la pena esperar
TTITLE5=Vivir contigo y sin tí
TTITLE6=El carrousel
TTITLE7=Así no más
TTITLE8=Pisando tierra
EXTD=YEAR: 1987
EXTT0=
EXTT1=
EXTT2=
EXTT3=
EXTT4=
EXTT5=
EXTT6=
EXTT7=
EXTT8=
PLAYORDER=
